# xmcd CD database file
#
# Track frame offsets:
#	150
#	16374
#	37975
#	54092
#	74448
#	87385
#	105597
#	121829
#	139881
#	157094
#	172472
#	190722
#	202969
#	216186
#	232511
#	254193
#	273886
#	287869
#	306741
#	327996
#
# Disc length: 4632 seconds
#
# Revision: 2
# Processed by: cddbd v1.5.2PL0 Copyright (c) Steve Scherf et al.
# Submitted via: CDex 1.70beta2
#
DISCID=2c121614
DTITLE=Divers - Latina Caliente CD1
DYEAR=2008
DGENRE=Salsa
TTITLE0=Yuri Buenaventura - Salsa Dura
TTITLE1=Celia Cruz and Johnny Pacheco - Quimbara
TTITLE2=Tito Puente - Para Los Rumberos
TTITLE3=Charlie Palmieri - La Hija De Lola
TTITLE4=Dave Cortez - Happy Soul With A Hook
TTITLE5=Eddie Palmieri - La Malanga
TTITLE6=Fania All Stars - Coro Miyare
TTITLE7=Hector Lavoe - Mi Gente
TTITLE8=Ismael Miranda - Asi Se Compone Un Son
TTITLE9=Ismael Rivera con Cortijo - El Negrito De Alabama
TTITLE10=Joe Bataan - It's A Good Feeling (Riot)
TTITLE11=La Lupe - Fever
TTITLE12=Mon Rivera - Que Gente Averigua
TTITLE13=Orquesta Harlow - Yo Soy Latino
TTITLE14=Pete "Conde" Rodriguez - La Rumba Es Mia
TTITLE15=Pete Rodriguez - I Like It Like That
TTITLE16=Ralfi Pagan - La Vida
TTITLE17=Ray Barretto - Indestructible
TTITLE18=Ray de la Paz - Pan Con Bacalao
TTITLE19=Cheo Feliciano - Pa Que Afinquen
EXTD=YEAR: 2008
EXTT0=
EXTT1=
EXTT2=
EXTT3=
EXTT4=
EXTT5=
EXTT6=
EXTT7=
EXTT8=
EXTT9=
EXTT10=
EXTT11=
EXTT12=
EXTT13=
EXTT14=
EXTT15=
EXTT16=
EXTT17=
EXTT18=
EXTT19=
PLAYORDER=
